# xmcd
#
# Track frame offsets: 
#        150
#        18938
#        38150
#        56613
#        78790
#        112568
#        129298
#        153498
#        181238
#        203290
#
# Disc length: 3035 seconds
#
# Revision: 0
# Processed by: cddbd v1.5.2PL0 Copyright (c) Steve Scherf et al.
# Submitted via: ExactAudioCopy v1.0b3
#
DISCID=640bd90a
DTITLE=Phuong Mai, Tuan Vu - Hoi Anh Hoi Em
DYEAR=1989
DGENRE=
TTITLE0=Hoi anh hoi em
TTITLE1=Tuan Vu - Co hang xom
TTITLE2=Phuong Mai - Nhat nang
TTITLE3=Tuan Vu - Gap nhau lam ngo
TTITLE4=Phuong Mai - Dau chan ky niem
TTITLE5=Tuan Vu - Tuyet trang
TTITLE6=Phuong Mai - Bien dau
TTITLE7=Tuan Vu - Linh nghi gi
TTITLE8=Phuong Mai - Tinh doi
TTITLE9=Tuan Vu - Chuyen tinh nguoi dan ao
EXTD=
EXTT0=
EXTT1=
EXTT2=
EXTT3=
EXTT4=
EXTT5=
EXTT6=
EXTT7=
EXTT8=
EXTT9=
PLAYORDER=
